<svg version="1.1" xmlns="http://www.w3.org/2000/svg" xmlns:xlink="http://www.w3.org/1999/xlink" style="enable-background:new 0 0 100.5 100.5;" xml:space="preserve" width="100.5" height="100.5"><rect id="backgroundrect" width="100%" height="100%" x="0" y="0" fill="none" stroke="none"/>




<g class="currentLayer" style=""><title>Layer 1</title><path d="M98.595,73.585L61.402,36.392l12.134-12.136c0.281-0.281,0.439-0.663,0.439-1.061s-0.158-0.779-0.439-1.061l-6.961-6.958  c-0.333-0.333-0.807-0.491-1.27-0.425l-11.92,1.678c-0.322,0.045-0.621,0.194-0.852,0.425l-5.334,5.334l-4.376-4.374  c-0.586-0.586-1.535-0.586-2.121,0l-9.115,9.118c-0.586,0.586-0.586,1.535,0,2.121l4.374,4.373L23.825,45.562  c-0.281,0.281-0.439,0.663-0.439,1.061s0.158,0.779,0.439,1.061l12.084,12.082c0.293,0.293,0.677,0.439,1.061,0.439  s0.768-0.146,1.061-0.439l12.131-12.133l37.193,37.191c0.293,0.293,0.677,0.439,1.061,0.439s0.768-0.146,1.061-0.439l9.118-9.118  C99.181,75.12,99.181,74.171,98.595,73.585z M34.77,27.993l6.994-6.997l3.315,3.314l-6.996,6.996L34.77,27.993z M36.971,56.584  l-9.963-9.961L54.301,19.33l10.683-1.503l5.371,5.368L58.226,35.326c-0.002,0.002-0.004,0.002-0.005,0.003s-0.002,0.004-0.004,0.005  L36.971,56.584z M88.416,81.643L52.283,45.512l6.998-6.999l36.132,36.133L88.416,81.643z" id="svg_1" class="" fill="#ffffff" fill-opacity="1"/><path d="M15.462,54.879c-0.155-0.813-0.938-1.348-1.754-1.193L2.186,55.877c-0.813,0.155-1.348,0.94-1.193,1.754  c0.137,0.719,0.766,1.22,1.472,1.22c0.093,0,0.188-0.009,0.282-0.026l11.522-2.191C15.082,56.478,15.616,55.693,15.462,54.879z" id="svg_2" class="" fill="#ffffff" fill-opacity="1"/><path d="M20.766,63.844l-8.286,8.263c-0.586,0.585-0.588,1.535-0.003,2.122c0.293,0.294,0.678,0.44,1.062,0.44  c0.383,0,0.767-0.146,1.06-0.438l8.286-8.263c0.586-0.585,0.588-1.535,0.003-2.122C22.303,63.261,21.353,63.258,20.766,63.844z" id="svg_3" class="" fill="#ffffff" fill-opacity="1"/><path d="M32.354,69.638c-0.823-0.124-1.583,0.444-1.704,1.263l-1.669,11.223c-0.122,0.819,0.443,1.583,1.263,1.704  c0.075,0.012,0.149,0.017,0.223,0.017c0.73,0,1.371-0.535,1.481-1.279l1.669-11.223C33.738,70.523,33.173,69.759,32.354,69.638z" id="svg_4" class="selected" fill="#ffffff" fill-opacity="1"/></g></svg>